<mxfile host="Electron" modified="2024-01-06T01:20:22.966Z" agent="Mozilla/5.0 (Windows NT 10.0; Win64; x64) AppleWebKit/537.36 (KHTML, like Gecko) draw.io/22.1.16 Chrome/120.0.6099.109 Electron/28.1.0 Safari/537.36" etag="I51zfhfb5RVaTGb2-4kV" version="22.1.16" type="device">
  <diagram name="Page-1" id="2cc2dc42-3aac-f2a9-1cec-7a8b7cbee084">
    <mxGraphModel dx="1050" dy="1541" grid="1" gridSize="10" guides="1" tooltips="1" connect="1" arrows="1" fold="1" page="1" pageScale="1" pageWidth="1100" pageHeight="850" background="none" math="0" shadow="0">
      <root>
        <mxCell id="0" />
        <mxCell id="1" parent="0" />
        <mxCell id="AsocRW2U9enTBRK1ayEM-1" value="" style="strokeWidth=1;shadow=0;dashed=0;align=center;html=1;shape=mxgraph.mockup.containers.browserWindow;rSize=0;strokeColor=#666666;strokeColor2=#008cff;strokeColor3=#c4c4c4;mainText=,;recursiveResize=0;" parent="1" vertex="1">
          <mxGeometry x="240" y="-320" width="850" height="2500" as="geometry" />
        </mxCell>
        <mxCell id="AsocRW2U9enTBRK1ayEM-2" value="Page 1" style="strokeWidth=1;shadow=0;dashed=0;align=center;html=1;shape=mxgraph.mockup.containers.anchor;fontSize=17;fontColor=#666666;align=left;whiteSpace=wrap;" parent="AsocRW2U9enTBRK1ayEM-1" vertex="1">
          <mxGeometry x="60" y="12" width="110" height="26" as="geometry" />
        </mxCell>
        <mxCell id="AsocRW2U9enTBRK1ayEM-3" value="https://www.draw.io" style="strokeWidth=1;shadow=0;dashed=0;align=center;html=1;shape=mxgraph.mockup.containers.anchor;rSize=0;fontSize=17;fontColor=#666666;align=left;" parent="AsocRW2U9enTBRK1ayEM-1" vertex="1">
          <mxGeometry x="130" y="60" width="250" height="26" as="geometry" />
        </mxCell>
        <mxCell id="AsocRW2U9enTBRK1ayEM-9" value="" style="rounded=0;whiteSpace=wrap;html=1;" parent="AsocRW2U9enTBRK1ayEM-1" vertex="1">
          <mxGeometry y="110" width="850" height="80" as="geometry" />
        </mxCell>
        <mxCell id="AsocRW2U9enTBRK1ayEM-14" value="" style="verticalLabelPosition=bottom;shadow=0;dashed=0;align=center;html=1;verticalAlign=top;strokeWidth=1;shape=mxgraph.mockup.graphics.simpleIcon;strokeColor=#999999;" parent="AsocRW2U9enTBRK1ayEM-1" vertex="1">
          <mxGeometry x="68" y="125" width="290" height="50" as="geometry" />
        </mxCell>
        <mxCell id="AsocRW2U9enTBRK1ayEM-15" value="&lt;b&gt;&lt;font style=&quot;font-size: 18px;&quot;&gt;LOGO&lt;/font&gt;&lt;/b&gt;" style="text;html=1;strokeColor=none;fillColor=none;align=center;verticalAlign=middle;whiteSpace=wrap;rounded=0;" parent="AsocRW2U9enTBRK1ayEM-1" vertex="1">
          <mxGeometry x="183" y="135" width="60" height="30" as="geometry" />
        </mxCell>
        <mxCell id="AsocRW2U9enTBRK1ayEM-16" value="" style="rounded=0;whiteSpace=wrap;html=1;" parent="AsocRW2U9enTBRK1ayEM-1" vertex="1">
          <mxGeometry x="20" y="280" width="810" height="260" as="geometry" />
        </mxCell>
        <mxCell id="AsocRW2U9enTBRK1ayEM-20" value="&lt;font style=&quot;font-size: 31px;&quot;&gt;Financial Container&lt;/font&gt;" style="text;html=1;strokeColor=none;fillColor=none;align=center;verticalAlign=middle;whiteSpace=wrap;rounded=0;" parent="AsocRW2U9enTBRK1ayEM-1" vertex="1">
          <mxGeometry x="293" y="290" width="270" height="60" as="geometry" />
        </mxCell>
        <mxCell id="AsocRW2U9enTBRK1ayEM-21" value="&lt;font style=&quot;font-size: 21px;&quot;&gt;A&lt;br&gt;&lt;br&gt;B&lt;br&gt;&lt;br&gt;C&lt;/font&gt;" style="text;html=1;strokeColor=none;fillColor=none;align=center;verticalAlign=middle;whiteSpace=wrap;rounded=0;" parent="AsocRW2U9enTBRK1ayEM-1" vertex="1">
          <mxGeometry x="395" y="320" width="60" height="210" as="geometry" />
        </mxCell>
        <mxCell id="AsocRW2U9enTBRK1ayEM-25" value="" style="rounded=0;whiteSpace=wrap;html=1;" parent="AsocRW2U9enTBRK1ayEM-1" vertex="1">
          <mxGeometry x="185" y="870" width="515" height="210" as="geometry" />
        </mxCell>
        <mxCell id="AsocRW2U9enTBRK1ayEM-27" value="" style="rounded=0;whiteSpace=wrap;html=1;" parent="AsocRW2U9enTBRK1ayEM-1" vertex="1">
          <mxGeometry x="180" y="1120" width="520" height="200" as="geometry" />
        </mxCell>
        <mxCell id="AsocRW2U9enTBRK1ayEM-28" value="&lt;font style=&quot;font-size: 20px;&quot;&gt;&amp;nbsp;PROMOTION/ADVERTISEMENT&amp;nbsp; 1&lt;/font&gt;" style="text;html=1;strokeColor=none;fillColor=none;align=center;verticalAlign=middle;whiteSpace=wrap;rounded=0;" parent="AsocRW2U9enTBRK1ayEM-1" vertex="1">
          <mxGeometry x="159" y="924" width="550" height="100" as="geometry" />
        </mxCell>
        <mxCell id="AsocRW2U9enTBRK1ayEM-29" value="&lt;font style=&quot;font-size: 20px;&quot;&gt;&amp;nbsp;PROMOTION/ADVERTISEMENT&amp;nbsp; 2&lt;/font&gt;" style="text;html=1;strokeColor=none;fillColor=none;align=center;verticalAlign=middle;whiteSpace=wrap;rounded=0;" parent="AsocRW2U9enTBRK1ayEM-1" vertex="1">
          <mxGeometry x="205" y="1171" width="460" height="70" as="geometry" />
        </mxCell>
        <mxCell id="AsocRW2U9enTBRK1ayEM-32" value="" style="rounded=1;whiteSpace=wrap;html=1;" parent="AsocRW2U9enTBRK1ayEM-1" vertex="1">
          <mxGeometry x="198" y="1348" width="470" height="370" as="geometry" />
        </mxCell>
        <mxCell id="AsocRW2U9enTBRK1ayEM-33" value="" style="strokeWidth=1;shadow=0;dashed=0;align=center;html=1;shape=mxgraph.mockup.forms.pwField;strokeColor=#999999;mainText=;align=left;fontColor=#666666;fontSize=17;spacingLeft=3;" parent="AsocRW2U9enTBRK1ayEM-1" vertex="1">
          <mxGeometry x="280" y="1465" width="310" height="30" as="geometry" />
        </mxCell>
        <mxCell id="AsocRW2U9enTBRK1ayEM-35" value="" style="strokeWidth=1;shadow=0;dashed=0;align=center;html=1;shape=mxgraph.mockup.forms.pwField;strokeColor=#999999;mainText=;align=left;fontColor=#666666;fontSize=17;spacingLeft=3;" parent="AsocRW2U9enTBRK1ayEM-1" vertex="1">
          <mxGeometry x="280" y="1520" width="310" height="30" as="geometry" />
        </mxCell>
        <mxCell id="AsocRW2U9enTBRK1ayEM-34" value="" style="strokeWidth=1;shadow=0;dashed=0;align=center;html=1;shape=mxgraph.mockup.forms.pwField;strokeColor=#999999;mainText=;align=left;fontColor=#666666;fontSize=17;spacingLeft=3;" parent="AsocRW2U9enTBRK1ayEM-1" vertex="1">
          <mxGeometry x="280" y="1572" width="310" height="30" as="geometry" />
        </mxCell>
        <mxCell id="AsocRW2U9enTBRK1ayEM-36" value="Button" style="labelPosition=center;verticalLabelPosition=middle;align=center;html=1;shape=mxgraph.basic.button;dx=10;whiteSpace=wrap;" parent="AsocRW2U9enTBRK1ayEM-1" vertex="1">
          <mxGeometry x="366.25" y="1634" width="137.5" height="40" as="geometry" />
        </mxCell>
        <mxCell id="AsocRW2U9enTBRK1ayEM-37" value="&lt;font style=&quot;font-size: 19px;&quot;&gt;FORM / GET IN TOUCH&lt;/font&gt;" style="text;html=1;strokeColor=none;fillColor=none;align=center;verticalAlign=middle;whiteSpace=wrap;rounded=0;" parent="AsocRW2U9enTBRK1ayEM-1" vertex="1">
          <mxGeometry x="335" y="1415" width="210" height="30" as="geometry" />
        </mxCell>
        <mxCell id="AsocRW2U9enTBRK1ayEM-38" value="" style="rounded=0;whiteSpace=wrap;html=1;" parent="AsocRW2U9enTBRK1ayEM-1" vertex="1">
          <mxGeometry y="1750" width="850" height="178" as="geometry" />
        </mxCell>
        <mxCell id="AsocRW2U9enTBRK1ayEM-39" value="&lt;font style=&quot;font-size: 16px;&quot;&gt;BUSINESS HOURS LIST&lt;/font&gt;" style="rounded=0;whiteSpace=wrap;html=1;" parent="AsocRW2U9enTBRK1ayEM-1" vertex="1">
          <mxGeometry x="195" y="1837" width="480" height="60" as="geometry" />
        </mxCell>
        <mxCell id="AsocRW2U9enTBRK1ayEM-41" value="&lt;span style=&quot;font-weight: normal;&quot;&gt;BUSINESS HOURS&lt;/span&gt;" style="text;strokeColor=none;fillColor=none;html=1;fontSize=24;fontStyle=1;verticalAlign=middle;align=center;" parent="AsocRW2U9enTBRK1ayEM-1" vertex="1">
          <mxGeometry x="255" y="1776" width="360" height="40" as="geometry" />
        </mxCell>
        <mxCell id="AsocRW2U9enTBRK1ayEM-42" value="" style="rounded=0;whiteSpace=wrap;html=1;" parent="AsocRW2U9enTBRK1ayEM-1" vertex="1">
          <mxGeometry x="130" y="1960" width="600" height="330" as="geometry" />
        </mxCell>
        <mxCell id="AsocRW2U9enTBRK1ayEM-43" value="&lt;font style=&quot;font-size: 28px;&quot;&gt;MAP&lt;/font&gt;" style="text;html=1;strokeColor=none;fillColor=none;align=center;verticalAlign=middle;whiteSpace=wrap;rounded=0;" parent="AsocRW2U9enTBRK1ayEM-1" vertex="1">
          <mxGeometry x="310" y="2065" width="240" height="110" as="geometry" />
        </mxCell>
        <mxCell id="AsocRW2U9enTBRK1ayEM-44" value="" style="rounded=0;whiteSpace=wrap;html=1;" parent="AsocRW2U9enTBRK1ayEM-1" vertex="1">
          <mxGeometry y="2350" width="850" height="150" as="geometry" />
        </mxCell>
        <mxCell id="AsocRW2U9enTBRK1ayEM-46" value="&lt;font style=&quot;font-size: 23px;&quot;&gt;INSTITUTIONAL INFORMATION&lt;/font&gt;" style="rounded=0;whiteSpace=wrap;html=1;" parent="AsocRW2U9enTBRK1ayEM-1" vertex="1">
          <mxGeometry x="195" y="2360" width="480" height="50" as="geometry" />
        </mxCell>
        <mxCell id="AsocRW2U9enTBRK1ayEM-47" value="&lt;font style=&quot;font-size: 17px;&quot;&gt;BANK&#39;S SOCIAL MEDIA LINKS&lt;/font&gt;" style="rounded=0;whiteSpace=wrap;html=1;" parent="AsocRW2U9enTBRK1ayEM-1" vertex="1">
          <mxGeometry x="155" y="2430" width="560" height="60" as="geometry" />
        </mxCell>
        <mxCell id="HlP9P9GdKtncIxwWqKx_-1" value="&lt;b style=&quot;border-color: var(--border-color); font-size: 19px;&quot;&gt;___________&lt;br style=&quot;border-color: var(--border-color);&quot;&gt;___________&lt;br style=&quot;border-color: var(--border-color);&quot;&gt;___________&lt;/b&gt;" style="text;html=1;strokeColor=none;fillColor=none;align=center;verticalAlign=middle;whiteSpace=wrap;rounded=0;" parent="AsocRW2U9enTBRK1ayEM-1" vertex="1">
          <mxGeometry x="660" y="119" width="170" height="50" as="geometry" />
        </mxCell>
        <mxCell id="AsocRW2U9enTBRK1ayEM-18" value="" style="ellipse;whiteSpace=wrap;html=1;rotation=90;" parent="AsocRW2U9enTBRK1ayEM-1" vertex="1">
          <mxGeometry x="326" y="549" width="200" height="215" as="geometry" />
        </mxCell>
        <mxCell id="AsocRW2U9enTBRK1ayEM-23" value="" style="rounded=0;whiteSpace=wrap;html=1;" parent="AsocRW2U9enTBRK1ayEM-1" vertex="1">
          <mxGeometry x="251.25" y="774" width="360" height="60" as="geometry" />
        </mxCell>
        <mxCell id="AsocRW2U9enTBRK1ayEM-24" value="&lt;font style=&quot;font-size: 23px;&quot;&gt;CEO&#39;s ADDRESS&lt;/font&gt;" style="text;html=1;strokeColor=none;fillColor=none;align=center;verticalAlign=middle;whiteSpace=wrap;rounded=0;" parent="AsocRW2U9enTBRK1ayEM-1" vertex="1">
          <mxGeometry x="331" y="782" width="200" height="40" as="geometry" />
        </mxCell>
        <mxCell id="AsocRW2U9enTBRK1ayEM-22" value="&lt;font style=&quot;font-size: 23px;&quot;&gt;CEO&amp;nbsp;&lt;br&gt;IMAGE&lt;/font&gt;" style="text;html=1;strokeColor=none;fillColor=none;align=center;verticalAlign=middle;whiteSpace=wrap;rounded=0;" parent="AsocRW2U9enTBRK1ayEM-1" vertex="1">
          <mxGeometry x="368" y="613.25" width="120" height="72.5" as="geometry" />
        </mxCell>
        <mxCell id="31IQNdlTztsWTvtLdrhA-1" style="edgeStyle=orthogonalEdgeStyle;rounded=0;orthogonalLoop=1;jettySize=auto;html=1;" edge="1" parent="AsocRW2U9enTBRK1ayEM-1" source="AsocRW2U9enTBRK1ayEM-16" target="AsocRW2U9enTBRK1ayEM-16">
          <mxGeometry relative="1" as="geometry" />
        </mxCell>
        <mxCell id="31IQNdlTztsWTvtLdrhA-4" value="&lt;font style=&quot;font-size: 22px;&quot;&gt;REQUEST LINK&lt;/font&gt;" style="rounded=0;whiteSpace=wrap;html=1;" vertex="1" parent="AsocRW2U9enTBRK1ayEM-1">
          <mxGeometry y="190" width="850" height="60" as="geometry" />
        </mxCell>
        <mxCell id="AsocRW2U9enTBRK1ayEM-4" value="&lt;font style=&quot;font-size: 28px;&quot;&gt;HOME PAGE&lt;/font&gt;" style="text;html=1;strokeColor=none;fillColor=none;align=center;verticalAlign=middle;whiteSpace=wrap;rounded=0;" parent="1" vertex="1">
          <mxGeometry x="110" y="-400" width="1100" height="60" as="geometry" />
        </mxCell>
      </root>
    </mxGraphModel>
  </diagram>
</mxfile>
